# xmcd CD database file
#
# Track frame offsets:
#	150
#	16888
#	34024
#	51310
#	69884
#	91559
#	107594
#	123163
#	138933
#	165099
#	181419
#	194835
#
# Disc length: 2899 seconds
#
# Revision: 0
# Processed by: cddbd v1.5.1PL2 Copyright (c) Steve Scherf et al.
# Submitted via: CDex 1.51
#
DISCID=8f0b510c
DTITLE=Mark Middler - Glorious Day!
DYEAR=1900
DGENRE=Country
TTITLE0=Now
TTITLE1=Glorious Day
TTITLE2=Walk the walk
TTITLE3=the Voice
TTITLE4=Friend in Jesus
TTITLE5=Gift of God
TTITLE6=+ my Heard
TTITLE7=Yes
TTITLE8=Say
TTITLE9=Amazing Grace
TTITLE10=Jesus at the Rodeo
TTITLE11=Moonlight Lullaby
EXTD=
EXTT0=
EXTT1=
EXTT2=
EXTT3=
EXTT4=
EXTT5=
EXTT6=
EXTT7=
EXTT8=
EXTT9=
EXTT10=
EXTT11=
PLAYORDER=
